<svg xmlns="http://www.w3.org/2000/svg" xmlns:xlink="http://www.w3.org/1999/xlink" width="143" height="22" viewBox="0 0 143 22">
    <defs>
        <path id="a" d="M0 .152h18.72V21.29H0z"/>
        <path id="c" d="M0 22h141.916V.1H0z"/>
    </defs>
    <g fill="none" fill-rule="evenodd">
        <path fill="#EC1C24" d="M128.072 1l-6.22 21h6.029l1.1-3.887h6.745L136.824 22h6.029l-6.219-21h-8.562zm4.265 5.19h.033l2.052 7.254h-4.138l2.053-7.255z"/>
        <g transform="translate(.853)">
            <path fill="#EC1C24" d="M30.602 22c6.293 0 9.334-1.123 9.766-6.875.102-1.368.122-2.775.122-4.075.001-1.3-.02-2.706-.122-4.076C39.936 1.224 36.895.1 30.602.1c-6.295 0-9.335 1.122-9.767 6.873-.102 1.37-.123 2.776-.123 4.076 0 1.3.02 2.707.123 4.075.432 5.752 3.472 6.875 9.767 6.875m-3.96-10.95c0-1.162.03-1.85.054-2.358.16-3.263 1.434-3.643 3.906-3.643 2.472 0 3.745.38 3.905 3.643.025.509.053 1.196.053 2.358 0 1.163-.028 1.85-.053 2.358-.16 3.263-1.433 3.644-3.905 3.644-2.472 0-3.746-.381-3.906-3.644a44.864 44.864 0 0 1-.054-2.358"/>
            <g transform="translate(0 .328)">
                <mask id="b" fill="#fff">
                    <use xlink:href="#a"/>
                </mask>
                <path fill="#EC1C24" d="M0 .152v5.27h6.239V21.29h6.242V5.422h6.238V.152z" mask="url(#b)"/>
            </g>
            <mask id="d" fill="#fff">
                <use xlink:href="#c"/>
            </mask>
            <path fill="#EC1C24" d="M89.847 21.62h5.924V.48h-5.924zM71.936 8.199V.48h-5.888v21.138h5.888v-8.15h6.843v8.15h5.888V.48H78.78v7.718zM115.252 10.574c2.622-.681 3.391-2.271 3.391-4.562 0-4.645-2.887-5.531-6.99-5.531H101.02v21.138h11.163c5.14 0 6.866-2.24 6.866-5.688 0-2.405-.544-4.525-3.796-5.357zm-8.345 2.363h4.082c1.652 0 1.998.733 1.998 1.924 0 1.192-.647 1.924-1.998 1.924h-4.082v-3.848zm0-7.622h4.082c1.069 0 1.729.512 1.729 1.743 0 1.056-.653 1.709-1.729 1.709h-4.082V5.315zM43.923 14.684h5.615c.005 1.026.135 1.713.625 2.089.56.426 1.06.566 2.718.566 1.596 0 3.345 0 3.345-1.99 0-1.572-.977-1.93-2.78-2.027-4.473-.24-6.092-.369-7.76-1.622-1.134-.853-1.722-2.519-1.722-4.77 0-3.827 1.317-5.168 3.218-6.104 1.963-.966 9.665-.966 11.736 0 2.607 1.216 2.683 3.85 2.683 6.29h-5.6c-.011-1.242-.288-1.594-.515-1.828-.581-.52-1.41-.632-2.606-.632-1.446 0-3.122.068-3.122 1.846 0 1.357.58 1.924 2.104 2.024 2.09.137 6.21.271 7.678 1.15 2.063 1.235 2.593 2.903 2.593 5.627 0 3.935-1.39 5.093-3.324 5.957-2.231.998-9.691.998-12.116-.076-2.715-1.202-2.77-3.59-2.77-6.5" mask="url(#d)"/>
        </g>
    </g>
</svg>
